<svg width="48" height="48" viewBox="0 0 48 48" fill="none"
	xmlns="http://www.w3.org/2000/svg">
	<circle cx="24" cy="24" r="24" fill="#FFDFE3"/>
	<g clip-path="url(#clip0_7:376)">
		<path d="M21.3687 29.8188L21.3562 29.8063L19.3063 28L21.3562 26.1938C21.5813 25.9938 21.6062 25.6438 21.4062 25.4188L21.3938 25.4063L20.3062 24.2438C20.0938 24.0188 19.7438 24.0125 19.5312 24.2188L15.925 27.6C15.6937 27.8188 15.6937 28.1875 15.925 28.4L19.5312 31.7813C19.6312 31.875 19.7688 31.9313 19.9062 31.9313C20.0562 31.9313 20.2062 31.8688 20.3062 31.7563L21.3938 30.5938C21.6 30.375 21.5875 30.025 21.3687 29.8188ZM35.1187 14.1188L29.875 8.87502C29.3125 8.31252 28.55 7.99377 27.7563 7.99377H15C13.3438 8.00002 12 9.34377 12 11V37C12 38.6563 13.3438 40 15 40H33C34.6562 40 36 38.6563 36 37V16.2438C36 15.45 35.6812 14.6813 35.1187 14.1188ZM28 11.2438L32.7563 16H28V11.2438ZM33 37H15V11H25V17.5C25 18.3313 25.6687 19 26.5 19H33V37ZM25.1 21.375C24.8063 21.2875 24.5062 21.4563 24.4187 21.75L21 33.5063C20.9125 33.8 21.0813 34.1063 21.375 34.1875L22.9 34.6313C23.1937 34.7188 23.5 34.5438 23.5813 34.2563L27 22.4938C27.0875 22.2 26.9187 21.8938 26.625 21.8125L25.1 21.375ZM26.6313 26.1813L26.6438 26.1938L28.6938 28L26.6438 29.8063C26.4187 30.0063 26.3938 30.3563 26.5938 30.5813L26.6062 30.5938L27.6938 31.7563C27.9 31.975 28.25 31.9875 28.4688 31.7813L32.075 28.4C32.3063 28.1813 32.3063 27.8125 32.075 27.6L28.4688 24.2188C28.25 24.0125 27.9 24.0188 27.6938 24.2438L26.6062 25.4063C26.4 25.625 26.4125 25.975 26.6313 26.1813Z" fill="#D70040"/>
	</g>
	<defs>
		<clipPath id="clip0_7:376">
			<rect width="24" height="32" fill="white" transform="translate(12 8)"/>
		</clipPath>
	</defs>
</svg>
