<svg width="48" height="48" viewBox="0 0 48 48" fill="none" xmlns="http://www.w3.org/2000/svg">
<circle cx="24" cy="24" r="24" fill="#FFDFE3"/>
<path d="M19.3687 32.8375C19.3687 32.9625 19.225 33.0625 19.0437 33.0625C18.8375 33.0812 18.6938 32.9812 18.6938 32.8375C18.6938 32.7125 18.8375 32.6125 19.0188 32.6125C19.2063 32.5938 19.3687 32.6938 19.3687 32.8375ZM17.425 32.5562C17.3813 32.6812 17.5063 32.825 17.6938 32.8625C17.8563 32.925 18.0437 32.8625 18.0813 32.7375C18.1188 32.6125 18 32.4688 17.8125 32.4125C17.65 32.3687 17.4688 32.4312 17.425 32.5562ZM20.1875 32.45C20.0063 32.4938 19.8812 32.6125 19.9 32.7563C19.9187 32.8813 20.0813 32.9625 20.2688 32.9188C20.45 32.875 20.575 32.7563 20.5562 32.6313C20.5375 32.5125 20.3687 32.4313 20.1875 32.45ZM24.3 8.5C15.6313 8.5 9 15.0813 9 23.75C9 30.6812 13.3625 36.6125 19.5938 38.7C20.3938 38.8438 20.675 38.35 20.675 37.9438C20.675 37.5562 20.6562 35.4188 20.6562 34.1063C20.6562 34.1063 16.2812 35.0437 15.3625 32.2437C15.3625 32.2437 14.65 30.425 13.625 29.9562C13.625 29.9562 12.1937 28.975 13.725 28.9937C13.725 28.9937 15.2812 29.1188 16.1375 30.6063C17.5062 33.0188 19.8 32.325 20.6938 31.9125C20.8375 30.9125 21.2438 30.2188 21.6938 29.8062C18.2 29.4187 14.675 28.9125 14.675 22.9C14.675 21.1812 15.15 20.3188 16.15 19.2188C15.9875 18.8125 15.4563 17.1375 16.3125 14.975C17.6187 14.5687 20.625 16.6625 20.625 16.6625C21.875 16.3125 23.2188 16.1313 24.55 16.1313C25.8813 16.1313 27.225 16.3125 28.475 16.6625C28.475 16.6625 31.4813 14.5625 32.7875 14.975C33.6438 17.1438 33.1125 18.8125 32.95 19.2188C33.95 20.325 34.5625 21.1875 34.5625 22.9C34.5625 28.9312 30.8813 29.4125 27.3875 29.8062C27.9625 30.3 28.45 31.2375 28.45 32.7062C28.45 34.8125 28.4312 37.4187 28.4312 37.9312C28.4312 38.3375 28.7188 38.8312 29.5125 38.6875C35.7625 36.6125 40 30.6812 40 23.75C40 15.0813 32.9688 8.5 24.3 8.5ZM15.075 30.0562C14.9937 30.1187 15.0125 30.2625 15.1188 30.3813C15.2188 30.4813 15.3625 30.525 15.4437 30.4438C15.525 30.3813 15.5062 30.2375 15.4 30.1187C15.3 30.0187 15.1562 29.975 15.075 30.0562ZM14.4 29.55C14.3563 29.6312 14.4187 29.7313 14.5437 29.7938C14.6437 29.8563 14.7688 29.8375 14.8125 29.75C14.8562 29.6688 14.7937 29.5688 14.6687 29.5063C14.5437 29.4688 14.4437 29.4875 14.4 29.55ZM16.425 31.775C16.325 31.8562 16.3625 32.0438 16.5062 32.1625C16.65 32.3062 16.8312 32.325 16.9125 32.225C16.9938 32.1438 16.9563 31.9562 16.8313 31.8375C16.6938 31.6938 16.5063 31.675 16.425 31.775ZM15.7125 30.8563C15.6125 30.9188 15.6125 31.0813 15.7125 31.225C15.8125 31.3687 15.9812 31.4312 16.0625 31.3687C16.1625 31.2875 16.1625 31.125 16.0625 30.9813C15.975 30.8375 15.8125 30.775 15.7125 30.8563Z" fill="#D70040"/>
</svg>
