<svg width="48" height="48" viewBox="0 0 48 48" fill="none" xmlns="http://www.w3.org/2000/svg">
<circle cx="24" cy="24" r="24" fill="#FFDFE3"/>
<path d="M18 26H17C14.7906 26 13 27.7938 13 30.0075V33.9925C13 36.2056 14.7906 38 17 38H18C19.1044 38 20 37.1025 20 35.9963V28.0037C20 26.8969 19.1044 26 18 26ZM31 26H30C28.8956 26 28 26.8969 28 28.0037V35.9963C28 37.1025 28.8956 38 30 38H31C33.2094 38 35 36.2056 35 33.9925V30.0075C35 27.7944 33.2094 26 31 26ZM24 10C15.0569 10 8.28563 17.4456 8 26V33C8 33.5525 8.4475 34 9 34H10C10.5525 34 11 33.5525 11 33V26C11 18.8331 16.8331 13.0125 24 13.0113C31.1669 13.0125 37 18.8331 37 26V33C37 33.5525 37.4475 34 38 34H39C39.5525 34 40 33.5525 40 33V26C39.7144 17.4456 32.9431 10 24 10Z" fill="#D70040"/>
</svg>
