<svg width="48" height="48" viewBox="0 0 48 48" fill="none" xmlns="http://www.w3.org/2000/svg">
<circle cx="24" cy="24" r="24" fill="#FFDFE3"/>
<path d="M37.4004 31.5996C37.2002 32.4004 37.2002 35.2002 37.4004 36.2002C37.7998 36.5996 37.9997 36.9997 38 37.4004V38.4004C38 39.4004 37.2002 40 36.4004 40H16C12.5996 40 10 37.4004 10 34V14C10 10.5996 12.5996 8 16 8H36.4004C37.4004 8 38 8.59961 38 9.59961V30.4004C38 31 37.8001 31.3997 37.4004 31.5996ZM33.7998 32H16C15 32 14 32.7998 14 34C14 35.2002 14.7998 36 16 36H33.7998V32ZM18.001 19.001C18.001 19.0332 18.0098 19.0625 18.0098 19.0947L20.3291 21.124C20.4055 21.191 20.4598 21.2797 20.4845 21.3783C20.5092 21.4769 20.5034 21.5807 20.4676 21.6759C20.4318 21.771 20.3679 21.853 20.2844 21.9109C20.2009 21.9688 20.1017 21.9999 20 22H19.999C19.8794 21.9939 19.7646 21.9506 19.6709 21.876L18.1963 20.5859C18.918 23.6846 21.6816 26 25 26C28.3184 26 31.082 23.6846 31.8047 20.5859L30.3301 21.876C30.2388 21.9553 30.1219 21.999 30.001 21.999H30C29.8579 21.9912 29.7238 21.9306 29.624 21.8291C29.5496 21.7349 29.5062 21.6199 29.5 21.5C29.5078 21.3577 29.5688 21.2235 29.6709 21.124L31.9902 19.0947C31.9912 19.0615 32 19.0322 32 19C32 18.3096 31.8691 17.6553 31.6836 17.0254L30.3545 18.3535C30.2607 18.4474 30.1335 18.5001 30.0009 18.5002C29.8682 18.5003 29.7409 18.4477 29.647 18.3539C29.5532 18.2602 29.5004 18.133 29.5003 18.0003C29.5002 17.8677 29.5528 17.7404 29.6465 17.6465L31.2979 15.9961C30.6731 14.6952 29.661 13.6196 28.4004 12.917C28.9127 13.7359 29.1062 14.7145 28.9442 15.6668C28.7821 16.6191 28.2758 17.4786 27.5215 18.082C27.9545 18.5308 28.2594 19.0874 28.4044 19.6939C28.5494 20.3004 28.5292 20.9347 28.3459 21.5308C28.1627 22.1269 27.8231 22.663 27.3624 23.0833C26.9018 23.5036 26.3369 23.7929 25.7266 23.9209L25.6377 21.7783L26.4297 22.3174C26.4711 22.3456 26.5202 22.3606 26.5703 22.3604C26.6145 22.3606 26.6579 22.3492 26.6962 22.3271C26.7345 22.305 26.7662 22.2731 26.7881 22.2348C26.8099 22.1964 26.8212 22.1529 26.8207 22.1087C26.8202 22.0645 26.8079 22.0213 26.7852 21.9834L26.252 21.0889L27.3711 20.8564C27.4274 20.8447 27.4779 20.8139 27.5142 20.7693C27.5505 20.7246 27.5703 20.6689 27.5703 20.6113C27.5703 20.5538 27.5505 20.498 27.5142 20.4534C27.4779 20.4088 27.4274 20.378 27.3711 20.3662L26.252 20.1338L26.7852 19.2393C26.8079 19.2014 26.8202 19.1581 26.8207 19.114C26.8212 19.0698 26.8099 19.0263 26.7881 18.9879C26.7662 18.9495 26.7345 18.9176 26.6962 18.8956C26.6579 18.8735 26.6145 18.862 26.5703 18.8623C26.5207 18.8642 26.4723 18.8787 26.4297 18.9043L25.543 19.5078L25.25 12.4893C25.2472 12.4249 25.2196 12.364 25.173 12.3195C25.1264 12.2749 25.0645 12.25 25 12.25C24.9355 12.25 24.8736 12.2749 24.827 12.3195C24.7804 12.364 24.7528 12.4249 24.75 12.4893L24.4609 19.415L23.7109 18.9053C23.6638 18.8733 23.6073 18.8584 23.5505 18.8629C23.4938 18.8675 23.4403 18.8912 23.3989 18.9302C23.3575 18.9693 23.3306 19.0212 23.3227 19.0776C23.3148 19.134 23.3264 19.1913 23.3555 19.2402L23.8887 20.1348L22.7695 20.3672C22.7133 20.3788 22.6627 20.4095 22.6264 20.4541C22.5901 20.4986 22.5703 20.5543 22.5703 20.6118C22.5703 20.6693 22.5901 20.725 22.6264 20.7696C22.6627 20.8141 22.7133 20.8448 22.7695 20.8564L23.8887 21.0898L23.3555 21.9834C23.3342 22.0228 23.3222 22.0666 23.3203 22.1113C23.324 22.1792 23.3517 22.2436 23.3984 22.293C23.4449 22.3368 23.5064 22.3613 23.5703 22.3613C23.6204 22.3611 23.6693 22.3461 23.7109 22.3184L24.3584 21.8779L24.2734 23.9229C23.663 23.7946 23.0981 23.5051 22.6375 23.0846C22.1768 22.6641 21.8373 22.1278 21.654 21.5316C21.4708 20.9354 21.4506 20.301 21.5956 19.6943C21.7406 19.0877 22.0455 18.531 22.4785 18.082C21.7239 17.4786 21.2175 16.6188 21.0557 15.6662C20.8938 14.7137 21.0877 13.7349 21.6006 12.916C20.3399 13.6188 19.3275 14.6943 18.7021 15.9951L20.3535 17.6465C20.4469 17.7403 20.4992 17.8674 20.4991 17.9997C20.4989 18.1321 20.4462 18.259 20.3526 18.3526C20.259 18.4462 20.1321 18.4989 19.9997 18.4991C19.8674 18.4992 19.7403 18.4469 19.6465 18.3535L18.3174 17.0244C18.1309 17.6553 18 18.3096 18.001 19.001Z" fill="#D70040"/>
</svg>
