<svg width="48" height="48" viewBox="0 0 48 48" fill="none" xmlns="http://www.w3.org/2000/svg">
<circle cx="24" cy="24" r="24" fill="#FFDFE3"/>
<path d="M39.3937 19.925C39.6375 19.7313 40 19.9125 40 20.2188V33C40 34.6562 38.6562 36 37 36H11C9.34375 36 8 34.6562 8 33V20.225C8 19.9125 8.35625 19.7375 8.60625 19.9312C10.0062 21.0187 11.8625 22.4 18.2375 27.0312C19.5563 27.9937 21.7812 30.0188 24 30.0063C26.2313 30.025 28.5 27.9563 29.7687 27.0312C36.1437 22.4 37.9937 21.0125 39.3937 19.925ZM24 28C25.45 28.025 27.5375 26.175 28.5875 25.4125C36.8812 19.3938 37.5125 18.8687 39.425 17.3687C39.7875 17.0875 40 16.65 40 16.1875V15C40 13.3438 38.6562 12 37 12H11C9.34375 12 8 13.3438 8 15V16.1875C8 16.65 8.2125 17.0812 8.575 17.3687C10.4875 18.8625 11.1188 19.3938 19.4125 25.4125C20.4625 26.175 22.55 28.025 24 28Z" fill="#D70040"/>
</svg>
