<svg width="48" height="48" viewBox="0 0 48 48" fill="none" xmlns="http://www.w3.org/2000/svg">
<circle cx="24" cy="24" r="24" fill="#FFDFE3"/>
<g clip-path="url(#clip0_8:529)">
<path d="M37.3333 10H10.6667C9.19444 10 8 11.1944 8 12.6667V30.4444C8 31.9167 9.19444 33.1111 10.6667 33.1111H21.3333L20.4444 35.7778H16.4444C15.7056 35.7778 15.1111 36.3722 15.1111 37.1111C15.1111 37.85 15.7056 38.4444 16.4444 38.4444H31.5556C32.2944 38.4444 32.8889 37.85 32.8889 37.1111C32.8889 36.3722 32.2944 35.7778 31.5556 35.7778H27.5556L26.6667 33.1111H37.3333C38.8056 33.1111 40 31.9167 40 30.4444V12.6667C40 11.1944 38.8056 10 37.3333 10ZM36.4444 29.5556H11.5556V13.5556H36.4444V29.5556Z" fill="#D70040"/>
</g>
<defs>
<clipPath id="clip0_8:529">
<rect width="32" height="28.4444" fill="white" transform="translate(8 10)"/>
</clipPath>
</defs>
</svg>
