<svg width="48" height="48" viewBox="0 0 48 48" fill="none" xmlns="http://www.w3.org/2000/svg">
<circle cx="24" cy="24" r="24" fill="#FFDFE3"/>
<g clip-path="url(#clip0_7:422)">
<path d="M24 22C19.0369 22 12 29.6725 12 34.5156C12 36.6969 13.6756 38 16.4837 38C19.5362 38 21.5519 36.4325 24 36.4325C26.4694 36.4325 28.4906 38 31.5162 38C34.3244 38 36 36.6969 36 34.5156C36 29.6725 28.9631 22 24 22ZM14.795 21.2119C14.145 19.0463 12.1425 17.6438 10.3225 18.0788C8.50249 18.5138 7.55437 20.6219 8.20437 22.7875C8.85437 24.9531 10.8569 26.3556 12.6769 25.9206C14.4969 25.4856 15.445 23.3775 14.795 21.2119ZM20.09 19.9131C22.0237 19.4044 22.9912 16.7919 22.2512 14.0781C21.5112 11.3644 19.3437 9.57751 17.41 10.0863C15.4762 10.595 14.5087 13.2075 15.2487 15.9213C15.9887 18.635 18.1569 20.4225 20.09 19.9131ZM37.6769 18.0794C35.8569 17.6444 33.855 19.0469 33.2044 21.2125C32.5544 23.3781 33.5025 25.4863 35.3225 25.9213C37.1425 26.3563 39.1444 24.9538 39.795 22.7881C40.445 20.6225 39.4969 18.5144 37.6769 18.0794ZM27.91 19.9131C29.8437 20.4219 32.0112 18.635 32.7512 15.9213C33.4912 13.2075 32.5237 10.5956 30.59 10.0863C28.6562 9.57689 26.4887 11.3644 25.7487 14.0781C25.0087 16.7919 25.9762 19.4044 27.91 19.9131Z" fill="#D70040"/>
</g>
<defs>
<clipPath id="clip0_7:422">
<rect width="32" height="32" fill="white" transform="translate(8 8)"/>
</clipPath>
</defs>
</svg>
