<svg width="48" height="48" viewBox="0 0 48 48" fill="none" xmlns="http://www.w3.org/2000/svg">
<circle cx="24" cy="24" r="24" fill="#FFDFE3"/>
<g clip-path="url(#clip0_91:235)">
<path d="M30.6268 21.3917L29.8621 14H32.5C33.3284 14 34 13.3284 34 12.5V9.5C34 8.67156 33.3284 8 32.5 8H15.5C14.6716 8 14 8.67156 14 9.5V12.5C14 13.3284 14.6716 14 15.5 14H18.1379L17.3733 21.3917C14.3416 22.8012 12 25.3288 12 28.5C12 29.3284 12.6716 30 13.5 30H22V36.5004C22 36.5781 22.0181 36.6546 22.0528 36.7241L23.5528 39.7241C23.7366 40.0917 24.2631 40.0924 24.4473 39.7241L25.9473 36.7241C25.982 36.6546 26 36.5781 26.0001 36.5004V30H34.5001C35.3285 30 36.0001 29.3284 36.0001 28.5C36 25.3011 33.6261 22.7863 30.6268 21.3917Z" fill="#D70040"/>
</g>
<defs>
<clipPath id="clip0_91:235">
<rect width="24" height="32" fill="white" transform="translate(12 8)"/>
</clipPath>
</defs>
</svg>
