<svg width="48" height="48" viewBox="0 0 48 48" fill="none" xmlns="http://www.w3.org/2000/svg">
<circle cx="24" cy="24" r="24" fill="#FFDFE3"/>
<path d="M36.7106 17.4823C36.7309 17.7665 36.7309 18.0508 36.7309 18.3351C36.7309 27.0051 30.132 36.9949 18.0711 36.9949C14.3553 36.9949 10.9036 35.9188 8 34.0508C8.52794 34.1117 9.0355 34.132 9.58375 34.132C12.6497 34.132 15.4721 33.0965 17.7259 31.33C14.8426 31.2691 12.4264 29.3808 11.5939 26.7818C12 26.8426 12.4061 26.8833 12.8325 26.8833C13.4213 26.8833 14.0102 26.802 14.5584 26.6599C11.5533 26.0508 9.29944 23.4112 9.29944 20.2234V20.1422C10.1725 20.6295 11.1878 20.9341 12.2639 20.9746C10.4974 19.7969 9.34006 17.7868 9.34006 15.5127C9.34006 14.2944 9.66488 13.1777 10.2334 12.2031C13.4619 16.1828 18.3147 18.7817 23.7563 19.066C23.6548 18.5787 23.5938 18.0711 23.5938 17.5635C23.5938 13.9493 26.5177 11.0051 30.1522 11.0051C32.0405 11.0051 33.7461 11.797 34.9441 13.0762C36.4263 12.7919 37.8476 12.2437 39.1065 11.4924C38.6191 13.0153 37.5836 14.2945 36.2232 15.1066C37.5431 14.9646 38.8222 14.599 39.9999 14.0914C39.1066 15.3909 37.9898 16.5482 36.7106 17.4823Z" fill="#D70040"/>
</svg>
