<svg width="48" height="48" viewBox="0 0 48 48" fill="none" xmlns="http://www.w3.org/2000/svg">
<circle cx="24" cy="24" r="24" fill="#FFDFE3"/>
<path d="M23.3516 23.9141C23.3516 25.5859 23.0625 27.0547 22.4844 28.3203C21.9062 29.5781 21.0781 30.5469 20 31.2266C18.9297 31.8984 17.6953 32.2344 16.2969 32.2344C14.9141 32.2344 13.6797 31.8984 12.5938 31.2266C11.5156 30.5469 10.6797 29.582 10.0859 28.332C9.5 27.082 9.20312 25.6406 9.19531 24.0078V23.0469C9.19531 21.3828 9.48828 19.9141 10.0742 18.6406C10.668 17.3672 11.5 16.3945 12.5703 15.7227C13.6484 15.043 14.8828 14.7031 16.2734 14.7031C17.6641 14.7031 18.8945 15.0391 19.9648 15.7109C21.043 16.375 21.875 17.3359 22.4609 18.5938C23.0469 19.8438 23.3438 21.3008 23.3516 22.9648V23.9141ZM20.3867 23.0234C20.3867 21.1328 20.0273 19.6836 19.3086 18.6758C18.5977 17.668 17.5859 17.1641 16.2734 17.1641C14.9922 17.1641 13.9883 17.668 13.2617 18.6758C12.543 19.6758 12.1758 21.0938 12.1602 22.9297V23.9141C12.1602 25.7891 12.5234 27.2383 13.25 28.2617C13.9844 29.2852 15 29.7969 16.2969 29.7969C17.6094 29.7969 18.6172 29.2969 19.3203 28.2969C20.0312 27.2969 20.3867 25.8359 20.3867 23.9141V23.0234ZM31.2031 24.6289L29.2695 26.6797V32H26.3047V14.9375H29.2695V22.9414L30.9102 20.9141L35.9023 14.9375H39.4883L33.1484 22.4961L39.8516 32H36.3359L31.2031 24.6289Z" fill="#D70040"/>
</svg>
